<?xml version="1.0" encoding="utf-8"?>
<svg xmlns="http://www.w3.org/2000/svg" xmlns:xlink="http://www.w3.org/1999/xlink"
     style="margin: auto; background: rgba(255, 255, 255 1); display: block; shape-rendering: auto;" width="100px"
     height="100px" viewBox="0 0 100 100" preserveAspectRatio="xMidYMid">
<g transform="translate(50 50)">
<g transform="rotate(6.80474)">
<animateTransform attributeName="transform" type="rotate" values="0;45" keyTimes="0;1" dur="0.24875621890547261s" repeatCount="indefinite"></animateTransform><path d="M29.491524206117255 -5.5 L40.491524206117255 -5.5 L40.491524206117255 5.5 L29.491524206117255 5.5 A30 30 0 0 1 24.742744050198738 16.964569457146712 L24.742744050198738 16.964569457146712 L32.52091864325076 24.742744050198734 L24.742744050198738 32.52091864325075 L16.964569457146716 24.742744050198734 A30 30 0 0 1 5.5 29.491524206117255 L5.5 29.491524206117255 L5.500000000000001 40.491524206117255 L-5.4999999999999964 40.491524206117255 L-5.499999999999997 29.491524206117255 A30 30 0 0 1 -16.964569457146705 24.742744050198738 L-16.964569457146705 24.742744050198738 L-24.74274405019873 32.52091864325076 L-32.52091864325076 24.742744050198738 L-24.742744050198738 16.964569457146712 A30 30 0 0 1 -29.491524206117255 5.500000000000009 L-29.491524206117255 5.500000000000009 L-40.491524206117255 5.50000000000001 L-40.491524206117255 -5.500000000000001 L-29.491524206117255 -5.500000000000002 A30 30 0 0 1 -24.742744050198738 -16.964569457146705 L-24.742744050198738 -16.964569457146705 L-32.52091864325076 -24.74274405019873 L-24.742744050198738 -32.52091864325076 L-16.964569457146712 -24.742744050198738 A30 30 0 0 1 -5.500000000000011 -29.491524206117255 L-5.500000000000011 -29.491524206117255 L-5.500000000000012 -40.491524206117255 L5.499999999999998 -40.491524206117255 L5.5 -29.491524206117255 A30 30 0 0 1 16.964569457146702 -24.74274405019874 L16.964569457146702 -24.74274405019874 L24.742744050198723 -32.520918643250766 L32.52091864325076 -24.74274405019874 L24.742744050198738 -16.964569457146716 A30 30 0 0 1 29.491524206117255 -5.500000000000013 M0 -20A20 20 0 1 0 0 20 A20 20 0 1 0 0 -20" fill="#1d3f72"></path></g></g>
<!-- [ldio] generated by https://loading.io/ --></svg>